<svg width="1024" height="1024" viewBox="0 0 1024 1024" xmlns="http://www.w3.org/2000/svg">
  <defs>
    <linearGradient id="bgGrad" x1="0%" y1="0%" x2="100%" y2="100%">
      <stop offset="0%" style="stop-color:#2E78C7"/>
      <stop offset="100%" style="stop-color:#1B5A9E"/>
    </linearGradient>
    <linearGradient id="bookGrad" x1="0%" y1="0%" x2="100%" y2="100%">
      <stop offset="0%" style="stop-color:#FFFFFF"/>
      <stop offset="100%" style="stop-color:#E8F0F8"/>
    </linearGradient>
  </defs>
  
  <!-- Fondo redondeado -->
  <rect x="0" y="0" width="1024" height="1024" rx="220" fill="url(#bgGrad)"/>
  
  <!-- Libro abierto -->
  <g transform="translate(512, 480)">
    <!-- Sombra del libro -->
    <ellipse cx="0" cy="280" rx="280" ry="40" fill="rgba(0,0,0,0.15)"/>
    
    <!-- Página izquierda -->
    <path d="M-40 -200 L-40 200 Q-180 180 -280 200 L-280 -180 Q-180 -200 -40 -200 Z" 
          fill="url(#bookGrad)" stroke="#C0D0E0" stroke-width="4"/>
    
    <!-- Página derecha -->
    <path d="M40 -200 L40 200 Q180 180 280 200 L280 -180 Q180 -200 40 -200 Z" 
          fill="url(#bookGrad)" stroke="#C0D0E0" stroke-width="4"/>
    
    <!-- Lomo del libro -->
    <path d="M-40 -200 L-40 200 L40 200 L40 -200 Z" fill="#D0E0F0"/>
    
    <!-- Líneas de texto izquierda -->
    <line x1="-220" y1="-120" x2="-80" y2="-120" stroke="#B0C4DE" stroke-width="8" stroke-linecap="round"/>
    <line x1="-220" y1="-60" x2="-100" y2="-60" stroke="#B0C4DE" stroke-width="8" stroke-linecap="round"/>
    <line x1="-220" y1="0" x2="-80" y2="0" stroke="#B0C4DE" stroke-width="8" stroke-linecap="round"/>
    <line x1="-220" y1="60" x2="-120" y2="60" stroke="#B0C4DE" stroke-width="8" stroke-linecap="round"/>
    <line x1="-220" y1="120" x2="-80" y2="120" stroke="#B0C4DE" stroke-width="8" stroke-linecap="round"/>
    
    <!-- Líneas de texto derecha -->
    <line x1="80" y1="-120" x2="220" y2="-120" stroke="#B0C4DE" stroke-width="8" stroke-linecap="round"/>
    <line x1="100" y1="-60" x2="220" y2="-60" stroke="#B0C4DE" stroke-width="8" stroke-linecap="round"/>
    <line x1="80" y1="0" x2="220" y2="0" stroke="#B0C4DE" stroke-width="8" stroke-linecap="round"/>
    <line x1="120" y1="60" x2="220" y2="60" stroke="#B0C4DE" stroke-width="8" stroke-linecap="round"/>
    <line x1="80" y1="120" x2="220" y2="120" stroke="#B0C4DE" stroke-width="8" stroke-linecap="round"/>
  </g>
  
  <!-- Círculo de check (aprobado) -->
  <g transform="translate(700, 280)">
    <circle cx="0" cy="0" r="120" fill="#22C55E" stroke="#FFFFFF" stroke-width="12"/>
    <path d="M-50 0 L-15 40 L55 -40" fill="none" stroke="#FFFFFF" stroke-width="24" stroke-linecap="round" stroke-linejoin="round"/>
  </g>
</svg>